<?xml version="1.0" encoding="UTF-8" standalone="no"?>
<!DOCTYPE svg PUBLIC "-//W3C//DTD SVG 1.1//EN"
 "http://www.w3.org/Graphics/SVG/1.1/DTD/svg11.dtd">
<!-- Generated by graphviz version 2.49.0 (20210828.1703)
 -->
<!-- Title: alpha Pages: 1 -->
<svg width="458pt" height="51pt"
 viewBox="0.00 0.00 458.00 50.84" xmlns="http://www.w3.org/2000/svg" xmlns:xlink="http://www.w3.org/1999/xlink">
<g id="graph0" class="graph" transform="scale(1 1) rotate(0) translate(4 46.84)">
<title>alpha</title>
<polygon fill="white" stroke="transparent" points="-4,4 -4,-46.84 454,-46.84 454,4 -4,4"/>
<!-- iL -->
<g id="node1" class="node">
<title>iL</title>
<ellipse fill="none" stroke="black" cx="27" cy="-21.44" rx="27" ry="18"/>
<text text-anchor="middle" x="27" y="-17.74" font-family="Times,serif" font-size="14.00">iL</text>
</g>
<!-- oL -->
<g id="node2" class="node">
<title>oL</title>
<ellipse fill="none" stroke="black" cx="99" cy="-21.44" rx="27" ry="18"/>
<text text-anchor="middle" x="99" y="-17.74" font-family="Times,serif" font-size="14.00">oL</text>
</g>
<!-- %3 -->
<g id="node3" class="node">
<title>%3</title>
<polygon fill="none" stroke="black" points="198,-39.44 144,-39.44 144,-3.44 198,-3.44 198,-39.44"/>
<text text-anchor="middle" x="171" y="-17.74" font-family="Times,serif" font-size="14.00">%3</text>
</g>
<!-- %3&#45;&gt;%3 -->
<g id="edge1" class="edge">
<title>%3&#45;&gt;%3</title>
<path fill="none" stroke="black" d="M198.24,-22.94C208.02,-22.97 216,-22.47 216,-21.44 216,-20.81 213.04,-20.38 208.51,-20.14"/>
<polygon fill="black" stroke="black" points="208.31,-16.64 198.24,-19.94 208.17,-23.64 208.31,-16.64"/>
</g>
<!-- %3&#45;&gt;%3 -->
<g id="edge2" class="edge">
<title>%3&#45;&gt;%3</title>
<path fill="none" stroke="black" d="M198.2,-24.17C216.34,-24.94 234,-24.03 234,-21.44 234,-19.33 222.34,-18.33 208.24,-18.45"/>
<polygon fill="black" stroke="black" points="208.11,-14.95 198.2,-18.7 208.28,-21.95 208.11,-14.95"/>
</g>
<!-- %3&#45;&gt;%3 -->
<g id="edge3" class="edge">
<title>%3&#45;&gt;%3</title>
<path fill="none" stroke="black" d="M198.39,-25.08C224.1,-26.96 252,-25.75 252,-21.44 252,-17.68 230.83,-16.28 208.38,-17.22"/>
<polygon fill="black" stroke="black" points="208.17,-13.73 198.39,-17.8 208.57,-20.72 208.17,-13.73"/>
</g>
<!-- %3&#45;&gt;%3 -->
<g id="edge4" class="edge">
<title>%3&#45;&gt;%3</title>
<path fill="none" stroke="black" d="M198.11,-25.72C231.11,-29 270,-27.58 270,-21.44 270,-15.92 238.61,-14.21 208.3,-16.3"/>
<polygon fill="black" stroke="black" points="207.79,-12.83 198.11,-17.16 208.37,-19.81 207.79,-12.83"/>
</g>
<!-- %3&#45;&gt;%3 -->
<g id="edge5" class="edge">
<title>%3&#45;&gt;%3</title>
<path fill="none" stroke="black" d="M198.03,-26.22C237.98,-31.04 288,-29.44 288,-21.44 288,-14.09 245.85,-12.14 208.03,-15.59"/>
<polygon fill="black" stroke="black" points="207.6,-12.12 198.03,-16.65 208.34,-19.08 207.6,-12.12"/>
</g>
<!-- %3&#45;&gt;%3 -->
<g id="edge6" class="edge">
<title>%3&#45;&gt;%3</title>
<path fill="none" stroke="black" d="M198.17,-26.65C244.86,-33.07 306,-31.33 306,-21.44 306,-12.24 253.16,-10.09 208.21,-14.99"/>
<polygon fill="black" stroke="black" points="207.67,-11.53 198.17,-16.22 208.52,-18.48 207.67,-11.53"/>
</g>
<!-- %3&#45;&gt;%3 -->
<g id="edge7" class="edge">
<title>%3&#45;&gt;%3</title>
<path fill="none" stroke="black" d="M198.06,-26.97C251.38,-35.1 324,-33.25 324,-21.44 324,-10.36 260.18,-8.05 208.26,-14.49"/>
<polygon fill="black" stroke="black" points="207.49,-11.07 198.06,-15.9 208.44,-18 207.49,-11.07"/>
</g>
<!-- %3&#45;&gt;%3 -->
<g id="edge8" class="edge">
<title>%3&#45;&gt;%3</title>
<path fill="none" stroke="black" d="M198.36,-27.3C258.19,-37.11 342,-35.16 342,-21.44 342,-8.47 267.11,-6.01 208.37,-14.07"/>
<polygon fill="black" stroke="black" points="207.73,-10.62 198.36,-15.57 208.77,-17.55 207.73,-10.62"/>
</g>
<!-- %3&#45;&gt;%3 -->
<g id="edge9" class="edge">
<title>%3&#45;&gt;%3</title>
<path fill="none" stroke="black" d="M198.1,-27.5C264.39,-39.14 360,-37.12 360,-21.44 360,-6.52 273.5,-3.97 208,-13.77"/>
<polygon fill="black" stroke="black" points="207.41,-10.32 198.1,-15.37 208.53,-17.23 207.41,-10.32"/>
</g>
<!-- %3&#45;&gt;%3 -->
<g id="edge10" class="edge">
<title>%3&#45;&gt;%3</title>
<path fill="none" stroke="black" d="M198.25,-27.73C270.92,-41.15 378,-39.05 378,-21.44 378,-4.61 280.33,-1.94 208.24,-13.43"/>
<polygon fill="black" stroke="black" points="207.51,-10 198.25,-15.14 208.7,-16.9 207.51,-10"/>
</g>
<!-- %3&#45;&gt;%3 -->
<g id="edge11" class="edge">
<title>%3&#45;&gt;%3</title>
<path fill="none" stroke="black" d="M198.01,-27.87C277.02,-43.17 396,-41.03 396,-21.44 396,-2.65 286.58,0.09 207.92,-13.21"/>
<polygon fill="black" stroke="black" points="207.22,-9.78 198.01,-15.01 208.47,-16.67 207.22,-9.78"/>
</g>
<!-- %3&#45;&gt;%3 -->
<g id="edge12" class="edge">
<title>%3&#45;&gt;%3</title>
<path fill="none" stroke="black" d="M198.21,-28.06C283.52,-45.18 414,-42.98 414,-21.44 414,-0.72 293.27,2.11 208.14,-12.94"/>
<polygon fill="black" stroke="black" points="207.39,-9.52 198.21,-14.81 208.69,-16.4 207.39,-9.52"/>
</g>
<!-- %3&#45;&gt;%3 -->
<g id="edge13" class="edge">
<title>%3&#45;&gt;%3</title>
<path fill="none" stroke="black" d="M198.14,-28.19C289.71,-47.2 432,-44.95 432,-21.44 432,1.25 299.54,4.14 207.98,-12.76"/>
<polygon fill="black" stroke="black" points="207.28,-9.33 198.14,-14.69 208.63,-16.2 207.28,-9.33"/>
</g>
<!-- %3&#45;&gt;%3 -->
<g id="edge14" class="edge">
<title>%3&#45;&gt;%3</title>
<path fill="none" stroke="black" d="M198.12,-28.31C295.92,-49.21 450,-46.92 450,-21.44 450,3.2 305.98,6.16 208.04,-12.56"/>
<polygon fill="black" stroke="black" points="207.22,-9.16 198.12,-14.57 208.61,-16.02 207.22,-9.16"/>
</g>
</g>
</svg>
